<?xml version="1.0" encoding="UTF-8" standalone="no"?>
<!-- Created with Inkscape (http://www.inkscape.org/) -->

<svg
   xmlns:dc="http://purl.org/dc/elements/1.1/"
   xmlns:cc="http://creativecommons.org/ns#"
   xmlns:rdf="http://www.w3.org/1999/02/22-rdf-syntax-ns#"
   xmlns:svg="http://www.w3.org/2000/svg"
   xmlns="http://www.w3.org/2000/svg"
   xmlns:sodipodi="http://sodipodi.sourceforge.net/DTD/sodipodi-0.dtd"
   xmlns:inkscape="http://www.inkscape.org/namespaces/inkscape"
   width="256"
   height="256"
   viewBox="0 0 67.733331 67.733331"
   version="1.1"
   id="svg8"
   inkscape:version="0.92.5 (2060ec1f9f, 2020-04-08)"
   sodipodi:docname="favicon.svg">
  <defs
     id="defs2" />
  <sodipodi:namedview
     id="base"
     pagecolor="#ffffff"
     bordercolor="#666666"
     borderopacity="1.0"
     inkscape:pageopacity="0.0"
     inkscape:pageshadow="2"
     inkscape:zoom="1.28"
     inkscape:cx="254.59445"
     inkscape:cy="94.089325"
     inkscape:document-units="mm"
     inkscape:current-layer="layer1"
     showgrid="true"
     inkscape:snap-page="true"
     units="px"
     inkscape:window-width="1600"
     inkscape:window-height="863"
     inkscape:window-x="1280"
     inkscape:window-y="0"
     inkscape:window-maximized="1">
    <inkscape:grid
       type="xygrid"
       id="grid821"
       spacingx="4.2333332"
       spacingy="4.2333332"
       empspacing="2" />
  </sodipodi:namedview>
  <metadata
     id="metadata5">
    <rdf:RDF>
      <cc:Work
         rdf:about="">
        <dc:format>image/svg+xml</dc:format>
        <dc:type
           rdf:resource="http://purl.org/dc/dcmitype/StillImage" />
        <dc:title></dc:title>
      </cc:Work>
    </rdf:RDF>
  </metadata>
  <g
     inkscape:label="レイヤー 1"
     inkscape:groupmode="layer"
     id="layer1"
     transform="translate(0,-229.26668)">
    <path
       style="opacity:1;vector-effect:none;fill:#000000;fill-opacity:1;fill-rule:nonzero;stroke:none;stroke-width:0.9800607;stroke-linecap:butt;stroke-linejoin:miter;stroke-miterlimit:4;stroke-dasharray:none;stroke-dashoffset:0;stroke-opacity:1"
       d="m 8.466671,229.26668 h 50.799988 c 4.690536,0 8.466671,3.77613 8.466671,8.46667 v 50.79998 c 0,4.69053 -3.776135,8.46667 -8.466671,8.46667 H 8.466671 C 3.7761353,297 0,293.22386 0,288.53333 v -50.79998 c 0,-4.69054 3.7761353,-8.46667 8.466671,-8.46667 z"
       id="rect819" />
    <path
       inkscape:connector-curvature="0"
       id="path842"
       style="font-style:normal;font-variant:normal;font-weight:normal;font-stretch:normal;font-size:71.40924835px;line-height:1.25;font-family:'Roboto Slab';-inkscape-font-specification:'Roboto Slab';text-align:center;letter-spacing:0px;word-spacing:0px;text-anchor:middle;fill:#ef4444;fill-opacity:1;stroke:none;stroke-width:1.78523099"
       d="m 12.771648,288.51712 v -4.39334 l 5.683451,-0.9763 v -39.99336 l -5.683451,-0.9763 v -4.42821 h 5.683451 14.191193 q 6.729485,0 11.71558,3.20784 5.020963,3.20783 7.810387,8.82155 2.789423,5.61371 2.789423,12.83135 v 1.0809 q 0,7.04329 -2.68482,12.69188 -2.68482,5.61371 -7.636048,8.89129 -4.916359,3.2427 -11.645844,3.2427 z m 12.552407,-5.36964 h 7.322237 q 4.811756,0 8.263668,-2.61509 3.451912,-2.64995 5.299905,-7.04329 1.882861,-4.42821 1.882861,-9.79785 v -1.15064 q 0,-5.54398 -1.882861,-9.90245 -1.847993,-4.39335 -5.299905,-6.93869 -3.451912,-2.54535 -8.263668,-2.54535 h -7.322237 z" />
  </g>
</svg>
