<?xml version="1.0" encoding="UTF-8" standalone="no"?>
<svg
   xmlns:dc="http://purl.org/dc/elements/1.1/"
   xmlns:cc="http://creativecommons.org/ns#"
   xmlns:rdf="http://www.w3.org/1999/02/22-rdf-syntax-ns#"
   xmlns:svg="http://www.w3.org/2000/svg"
   xmlns="http://www.w3.org/2000/svg"
   xmlns:sodipodi="http://sodipodi.sourceforge.net/DTD/sodipodi-0.dtd"
   xmlns:inkscape="http://www.inkscape.org/namespaces/inkscape"
   id="Layer_1"
   data-name="Layer 1"
   viewBox="0 0 63.36 73.44"
   version="1.1"
   sodipodi:docname="nginx-tech.svg"
   inkscape:version="0.92.5 (2060ec1f9f, 2020-04-08)">
  <metadata
     id="metadata17">
    <rdf:RDF>
      <cc:Work
         rdf:about="">
        <dc:format>image/svg+xml</dc:format>
        <dc:type
           rdf:resource="http://purl.org/dc/dcmitype/StillImage" />
      </cc:Work>
    </rdf:RDF>
  </metadata>
  <sodipodi:namedview
     pagecolor="#ffffff"
     bordercolor="#666666"
     borderopacity="1"
     objecttolerance="10"
     gridtolerance="10"
     guidetolerance="10"
     inkscape:pageopacity="0"
     inkscape:pageshadow="2"
     inkscape:window-width="947"
     inkscape:window-height="480"
     id="namedview15"
     showgrid="false"
     inkscape:zoom="3.2135075"
     inkscape:cx="-8.4630519"
     inkscape:cy="23.027797"
     inkscape:window-x="0"
     inkscape:window-y="27"
     inkscape:window-maximized="0"
     inkscape:current-layer="Layer_1" />
  <defs
     id="defs4">
    <style
       id="style2">.cls-1{fill:#009639;}.cls-2{fill:#fff;}.cls-3{fill:#999;}</style>
  </defs>
  <title
     id="title6">NGINX-hex-source-RGB-02</title>
  <path
     d="M 31.794922 0.72265625 A 3.66313 3.66313 0 0 0 29.824219 1.2246094 L 29.824219 1.2265625 L 1.8710938 17.365234 A 3.6653 3.6653 0 0 0 0.01171875 20.582031 L 0.01171875 52.859375 A 3.64426 3.64426 0 0 0 0.50195312 54.720703 A 3.637 3.637 0 0 0 1.8691406 56.076172 L 29.822266 72.214844 A 3.66793 3.66793 0 0 0 33.537109 72.214844 L 61.492188 56.076172 A 3.66568 3.66568 0 0 0 63.347656 52.859375 L 63.347656 20.582031 A 3.66685 3.66685 0 0 0 61.490234 17.365234 L 33.537109 1.2265625 L 33.537109 1.2246094 A 3.66313 3.66313 0 0 0 31.794922 0.72265625 z M 19.626953 20.837891 A 6.39282 6.39282 0 0 1 24.527344 23.029297 L 25.613281 24.330078 L 40.630859 42.302734 L 40.630859 24.431641 L 40.628906 24.431641 A 3.59488 3.59488 0 0 1 47.818359 24.431641 L 47.814453 49.107422 C 47.814453 51.019172 46.124062 52.599609 43.732422 52.599609 A 6.38857 6.38857 0 0 1 38.832031 50.410156 L 22.728516 31.136719 L 22.728516 49.009766 L 22.730469 49.007812 A 3.59488 3.59488 0 0 1 15.541016 49.009766 L 15.541016 49.007812 L 15.544922 24.332031 C 15.544922 22.420291 17.234443 20.837891 19.626953 20.837891 z "
     id="path8"
     style="fill:#ffffff" />
  <path
     class="cls-3"
     d="M59.97478,66.0341h.45934V65.011h.36335a1.03674,1.03674,0,0,1,.51037.08522.63917.63917,0,0,1,.24255.59513v.20976l.01029.0782a.15781.15781,0,0,1,.007.03278c.00234.01264.00328.01638.0103.022h.42563l-.01546-.029a.29863.29863,0,0,1-.0206-.133c-.00609-.07351-.00609-.13625-.00609-.19431v-.19385a.74194.74194,0,0,0-.14234-.40549.66129.66129,0,0,0-.45325-.25472,1.11884,1.11884,0,0,0,.37787-.12268.56673.56673,0,0,0,.25378-.51505.64008.64008,0,0,0-.40174-.66068,1.99906,1.99906,0,0,0-.71219-.09318h-.90884Zm1.30637-1.40282a1.1882,1.1882,0,0,1-.43686.05806h-.41017V63.7421h.39144a1.1555,1.1555,0,0,1,.552.10161.39413.39413,0,0,1,.17278.37974.40087.40087,0,0,1-.26924.40783m1.334-1.5639a2.30792,2.30792,0,0,0-1.687-.68971,2.373,2.373,0,0,0,0,4.746,2.37724,2.37724,0,0,0,1.687-4.0563m-.24114.23552a1.94359,1.94359,0,0,1,.59559,1.44356,2.03922,2.03922,0,0,1-3.48552,1.45059,2.01311,2.01311,0,0,1-.59279-1.45059A2.04627,2.04627,0,0,1,60.9281,62.697a1.946,1.946,0,0,1,1.44591.60589"
     id="path12" />
</svg>
