<?xml version="1.0" encoding="UTF-8" standalone="no"?>
<!-- Created with Inkscape (http://www.inkscape.org/) -->

<svg
   xmlns:dc="http://purl.org/dc/elements/1.1/"
   xmlns:cc="http://creativecommons.org/ns#"
   xmlns:rdf="http://www.w3.org/1999/02/22-rdf-syntax-ns#"
   xmlns:svg="http://www.w3.org/2000/svg"
   xmlns="http://www.w3.org/2000/svg"
   xmlns:xlink="http://www.w3.org/1999/xlink"
   xmlns:sodipodi="http://sodipodi.sourceforge.net/DTD/sodipodi-0.dtd"
   xmlns:inkscape="http://www.inkscape.org/namespaces/inkscape"
   version="1.1"
   width="767"
   height="767"
   id="svg4244"
   sodipodi:docname="sdl-tech.svg"
   inkscape:version="0.92.5 (2060ec1f9f, 2020-04-08)">
  <sodipodi:namedview
     pagecolor="#ffffff"
     bordercolor="#666666"
     borderopacity="1"
     objecttolerance="10"
     gridtolerance="10"
     guidetolerance="10"
     inkscape:pageopacity="0"
     inkscape:pageshadow="2"
     inkscape:window-width="947"
     inkscape:window-height="480"
     id="namedview14"
     showgrid="false"
     inkscape:zoom="0.5909869"
     inkscape:cx="88.656668"
     inkscape:cy="335.03281"
     inkscape:window-x="0"
     inkscape:window-y="27"
     inkscape:window-maximized="0"
     inkscape:current-layer="svg4244" />
  <defs
     id="defs3">
    <linearGradient
       id="linearGradient4212">
      <stop
         id="stop4214"
         style="stop-color:#656f71;stop-opacity:1"
         offset="0" />
      <stop
         id="stop4216"
         style="stop-color:#d3d4cf;stop-opacity:1"
         offset="1" />
    </linearGradient>
    <radialGradient
       cx="204.87476"
       cy="-243.96365"
       r="25.724852"
       fx="204.87476"
       fy="-243.96365"
       id="radialGradient4242"
       xlink:href="#linearGradient4212"
       gradientUnits="userSpaceOnUse"
       gradientTransform="matrix(-4.2279887,-8.2514497,14.012795,-7.1800647,5687.8348,455.05304)"
       spreadMethod="pad" />
  </defs>
  <metadata
     id="metadata4">
    <rdf:RDF>
      <cc:Work
         rdf:about="">
        <dc:format>image/svg+xml</dc:format>
        <dc:type
           rdf:resource="http://purl.org/dc/dcmitype/StillImage" />
        <dc:title></dc:title>
      </cc:Work>
    </rdf:RDF>
  </metadata>
  <g
     id="g826"
     transform="translate(0.42056317,-183.83399)">
    <g
       style="fill:#ffffff;fill-opacity:1"
       id="layer1"
       transform="translate(-713.34913,111.28516)">
      <path
         inkscape:connector-curvature="0"
         style="fill:#ffffff;fill-opacity:1"
         id="path4198"
         d="m 1071.4096,641.18988 c -84.77169,-2.90348 -165.40673,-22.0772 -228.06456,-54.22993 -5.90389,-3.02955 -18.78665,-10.19918 -18.78665,-10.45537 0,-0.0873 2.04536,0.87679 4.54514,2.15339 30.68742,15.66602 69.26014,29.06041 108.17415,37.56341 61.75833,13.49448 129.42492,17.07899 195.74372,10.36918 62.5598,-6.32959 120.9835,-21.6879 170.8968,-44.92499 44.8602,-20.88454 80.7806,-47.5952 104.6682,-77.83206 36.7359,-46.49985 41.6542,-100.35598 13.5341,-148.19705 -18.2067,-30.97504 -48.6009,-58.26929 -90.3162,-81.10457 -3.9949,-2.18677 -7.1294,-3.97585 -6.9658,-3.97585 0.5468,0 18.1975,8.50972 23.7232,11.43738 26.9527,14.2799 48.3761,29.47515 67.0767,47.57643 23.4878,22.73554 38.2446,46.16059 45.4595,72.16304 6.6724,24.04825 5.4266,50.72 -3.4739,74.37222 -11.9732,31.81731 -36.4653,61.10393 -72.2973,86.44965 -58.2008,41.16847 -141.5395,68.43618 -233.9227,76.5377 -25.0722,2.19869 -54.5058,2.97048 -79.9944,2.09742 z" />
      <path
         inkscape:connector-curvature="0"
         style="font-variant:normal;font-weight:bold;font-size:18.92208672px;font-family:Tahoma;-inkscape-font-specification:Tahoma-Bold;writing-mode:lr-tb;fill:#ffffff;fill-opacity:1;fill-rule:nonzero;stroke:none"
         id="path4085"
         d="m 1282.6095,532.1921 h -0.4518 c -0.2081,-0.0749 -0.5093,-0.12445 -0.9042,-0.1557 -0.3949,-0.0367 -0.8307,-0.05 -1.3085,-0.05 -0.5717,0 -1.1706,0.0749 -1.7992,0.23649 -0.6277,0.15801 -1.2381,0.34486 -1.8304,0.56295 v 11.12719 h -5.4523 v -16.61674 h 5.4523 v 2.38229 c 0.2488,-0.21673 0.5941,-0.49072 1.0362,-0.82074 0.4409,-0.33018 0.8443,-0.59408 1.2068,-0.79209 0.395,-0.22685 0.8542,-0.42202 1.3788,-0.58412 0.5242,-0.16299 1.02,-0.24429 1.4875,-0.24429 0.177,1.3e-4 0.3739,0.005 0.5916,0.0132 0.2182,0.0103 0.416,0.023 0.5917,0.0496 z m -19.8255,12.16298 c -3.3025,0 -5.8338,-0.74975 -7.5942,-2.24912 -1.7604,-1.49937 -2.6407,-3.63507 -2.6407,-6.4069 0,-2.71285 0.8209,-4.87807 2.4616,-6.49587 1.6407,-1.61772 3.9361,-2.42662 6.8855,-2.42662 2.6792,0 4.6941,0.68497 6.0441,2.05672 1.3502,1.37121 2.0252,3.33415 2.0252,5.88906 v 1.86445 h -11.9483 c 0.05,0.76968 0.2231,1.41308 0.5144,1.93094 0.2915,0.51807 0.6751,0.92907 1.1532,1.23544 0.4671,0.30539 1.0126,0.5256 1.6359,0.65884 0.6226,0.13322 1.3031,0.19931 2.0405,0.19931 0.634,0 1.2567,-0.0624 1.8694,-0.19931 0.6129,-0.13321 1.1732,-0.30767 1.6825,-0.52556 0.4473,-0.18827 0.8594,-0.38989 1.238,-0.60654 0.3785,-0.21673 0.6876,-0.40961 0.9266,-0.57662 h 0.5766 v 4.27636 c -0.4472,0.16807 -0.8543,0.32236 -1.2229,0.46579 -0.3688,0.1433 -0.8757,0.28883 -1.5188,0.43715 -0.5917,0.14827 -1.2019,0.26405 -1.8305,0.34762 -0.6277,0.0873 -1.3942,0.12578 -2.2979,0.12578 z m 1.8071,-10.89037 c -0.036,-1.09476 -0.299,-1.92855 -0.8021,-2.50071 -0.5032,-0.57168 -1.2747,-0.85814 -2.3131,-0.85814 -1.0599,1.4e-4 -1.8876,0.30124 -2.4848,0.90295 -0.5967,0.60155 -0.9267,1.42043 -0.9889,2.45626 z m -10.9015,-6.17027 -8.8327,22.71298 h -5.8574 l 2.6482,-6.49571 -6.4181,-16.21727 h 5.7328 l 3.6762,10.41687 3.4429,-10.41687 z m -23.8739,12.28127 v -3.46245 c -0.9241,0.0873 -1.672,0.16578 -2.2432,0.22915 -0.5716,0.0624 -1.1322,0.18919 -1.6826,0.37747 -0.4781,0.15801 -0.8494,0.39723 -1.1134,0.71738 -0.2654,0.32145 -0.3971,0.74728 -0.3971,1.27996 0,0.77964 0.2205,1.31444 0.6625,1.60548 0.441,0.29162 1.0935,0.43579 1.9551,0.43579 0.4781,0 0.9653,-0.0997 1.4643,-0.30995 0.4982,-0.20666 0.9503,-0.49816 1.3554,-0.87307 z m 0,2.57471 c -0.3738,0.29617 -0.7086,0.5617 -1.0052,0.79958 -0.2967,0.2365 -0.6936,0.47326 -1.1918,0.70989 -0.4882,0.22686 -0.9628,0.39997 -1.4255,0.51812 -0.4619,0.12446 -1.1084,0.17817 -1.9395,0.17817 -1.5473,0 -2.8324,-0.4932 -3.8556,-1.4797 -1.0225,-0.98641 -1.5343,-2.22934 -1.5343,-3.7287 0,-1.23299 0.259,-2.22949 0.7785,-2.98896 0.5194,-0.75972 1.2668,-1.36138 2.2432,-1.80526 0.9862,-0.45324 2.1653,-0.76968 3.5361,-0.94654 1.3708,-0.17816 2.8457,-0.31638 4.4241,-0.41464 v -0.0873 c 0,-0.91791 -0.3564,-1.55121 -1.0672,-1.90145 -0.7112,-0.34993 -1.7786,-0.52557 -3.2013,-0.52557 -0.6439,0 -1.3968,0.11207 -2.2588,0.33246 -0.8618,0.22179 -1.7032,0.50565 -2.5236,0.85065 h -0.4671 v -4.00997 c 0.5405,-0.14826 1.4126,-0.32238 2.6171,-0.52556 1.2045,-0.2016 2.4199,-0.30262 3.6453,-0.30262 3.0118,0 5.2057,0.47577 6.5817,1.4279 1.3763,0.95154 2.0641,2.40445 2.0641,4.35755 v 11.30477 h -5.4211 z m -10.1824,1.7608 h -15.4845 v -22.03235 h 5.8262 v 17.83001 h 9.6583 z m -30.7772,-4.33551 v -3.46245 c -0.924,0.0873 -1.6721,0.16578 -2.2432,0.22915 -0.5717,0.0624 -1.1322,0.18919 -1.6825,0.37747 -0.4782,0.15801 -0.8494,0.39723 -1.1135,0.71738 -0.2654,0.32145 -0.3972,0.74728 -0.3972,1.27996 0,0.77964 0.2206,1.31444 0.6625,1.60548 0.4409,0.29162 1.0935,0.43579 1.955,0.43579 0.4783,0 0.9666,-0.0997 1.4645,-0.30995 0.4982,-0.20666 0.9501,-0.49816 1.3553,-0.87307 z m 0,2.57471 c -0.3737,0.29617 -0.7086,0.5617 -1.005,0.79958 -0.2968,0.2365 -0.6937,0.47326 -1.1919,0.70989 -0.4882,0.22686 -0.9628,0.39997 -1.4253,0.51812 -0.4621,0.12446 -1.1084,0.17817 -1.9397,0.17817 -1.5473,0 -2.8324,-0.4932 -3.8553,-1.4797 -1.0226,-0.98641 -1.5344,-2.22934 -1.5344,-3.7287 0,-1.23299 0.2588,-2.22949 0.7783,-2.98896 0.5194,-0.75972 1.2668,-1.36138 2.2433,-1.80526 0.9864,-0.45324 2.1651,-0.76968 3.5361,-0.94654 1.3709,-0.17816 2.8456,-0.31638 4.4242,-0.41464 v -0.0873 c 0,-0.91791 -0.3564,-1.55121 -1.0674,-1.90145 -0.711,-0.34993 -1.7785,-0.52557 -3.2013,-0.52557 -0.6438,0 -1.3968,0.11207 -2.2588,0.33246 -0.8618,0.22179 -1.7031,0.50565 -2.5236,0.85065 h -0.4671 v -4.00997 c 0.5405,-0.14826 1.4124,-0.32238 2.617,-0.52556 1.2045,-0.2016 2.4198,-0.30262 3.6454,-0.30262 3.0116,0 5.2057,0.47577 6.5817,1.4279 1.376,0.95154 2.0642,2.40445 2.0642,4.35755 v 11.30477 h -5.4212 z m -11.9103,1.7608 h -5.4523 v -16.61678 h 5.4523 z m 0.1556,-18.98426 h -5.7638 v -4.03957 h 5.7638 z m -7.8562,18.98426 h -5.4523 v -1.73128 c -0.3536,0.27645 -0.756,0.57168 -1.2068,0.88802 -0.4519,0.31502 -0.8494,0.55293 -1.192,0.70991 -0.4357,0.19791 -0.8667,0.34484 -1.2929,0.4445 -0.4261,0.0997 -0.9352,0.14827 -1.5266,0.14827 -1.994,0 -3.5726,-0.78462 -4.7358,-2.35273 -1.1632,-1.56838 -1.7447,-3.6646 -1.7447,-6.28863 0,-1.45008 0.198,-2.70773 0.5916,-3.77319 0.3948,-1.06486 0.9403,-1.99261 1.6358,-2.78171 0.6339,-0.71986 1.4019,-1.28978 2.3055,-1.7091 0.903,-0.41972 1.8589,-0.62899 2.8663,-0.62899 0.9141,0 1.6643,0.0873 2.2509,0.27417 0.5866,0.18322 1.2697,0.46577 2.0487,0.85063 v -7.07286 h 5.4523 z m -5.4523,-4.58707 v -8.15292 c -0.2705,-0.1281 -0.6227,-0.2342 -1.0598,-0.31778 -0.4359,-0.0873 -0.8095,-0.12578 -1.1222,-0.12578 -1.3086,0 -2.2925,0.43486 -2.9519,1.3021 -0.6601,0.86808 -0.989,2.08137 -0.989,3.64006 0,1.6375 0.2627,2.82116 0.7872,3.55113 0.5243,0.72981 1.3733,1.09472 2.5469,1.09472 0.4783,0 0.9603,-0.0873 1.4489,-0.26635 0.4881,-0.17817 0.934,-0.41974 1.3397,-0.72486 z m -18.5084,5.03093 c -3.3026,0 -5.8339,-0.74975 -7.5944,-2.24912 -1.7603,-1.49937 -2.6404,-3.63507 -2.6404,-6.4069 0,-2.71285 0.8208,-4.87807 2.4614,-6.49587 1.6408,-1.61772 3.936,-2.42662 6.8855,-2.42662 2.6794,0 4.6941,0.68497 6.0443,2.05672 1.3501,1.37121 2.0251,3.33415 2.0251,5.88906 v 1.86445 h -11.9484 c 0.051,0.76968 0.2232,1.41308 0.5145,1.93094 0.2916,0.51807 0.675,0.92907 1.1533,1.23544 0.467,0.30539 1.0125,0.5256 1.6357,0.65884 0.6228,0.13322 1.3034,0.19931 2.0407,0.19931 0.6339,0 1.2567,-0.0624 1.8694,-0.19931 0.6128,-0.13321 1.1732,-0.30767 1.6823,-0.52556 0.4473,-0.18827 0.8594,-0.38989 1.238,-0.60654 0.3784,-0.21673 0.6887,-0.40961 0.9267,-0.57662 h 0.5765 v 4.27636 c -0.4472,0.16807 -0.8543,0.32236 -1.2229,0.46579 -0.3688,0.1433 -0.8756,0.28883 -1.519,0.43715 -0.5915,0.14827 -1.2018,0.26405 -1.8305,0.34762 -0.6276,0.0873 -1.3941,0.12578 -2.2977,0.12578 z m 1.8071,-10.89037 c -0.037,-1.09476 -0.2989,-1.92855 -0.8021,-2.50071 -0.503,-0.57168 -1.2747,-0.85814 -2.3133,-0.85814 -1.0586,1.4e-4 -1.8875,0.30124 -2.4847,0.90295 -0.5966,0.60155 -0.9266,1.42043 -0.9888,2.45626 z m -18.3805,10.44651 v -8.30099 c 0,-0.81826 -0.013,-1.50923 -0.051,-2.07153 -0.037,-0.56171 -0.1245,-1.0213 -0.2801,-1.37608 -0.1556,-0.35497 -0.3972,-0.61401 -0.7248,-0.77717 -0.3275,-0.16296 -0.7871,-0.2443 -1.3786,-0.2443 -0.4161,0 -0.8257,0.0873 -1.2306,0.25901 -0.4045,0.17311 -0.8467,0.4174 -1.324,0.73233 v 11.77826 h -5.4835 v -8.30101 c 0,-0.80952 -0.013,-1.49691 -0.051,-2.06418 -0.037,-0.56669 -0.1318,-1.02875 -0.2874,-1.38346 -0.1558,-0.35496 -0.3972,-0.61401 -0.7249,-0.77716 -0.3274,-0.16297 -0.781,-0.24428 -1.3632,-0.24428 -0.4473,0 -0.883,0.0997 -1.3084,0.29663 -0.4262,0.19655 -0.8408,0.42984 -1.2464,0.69493 v 11.77831 h -5.4523 v -16.61684 h 5.4523 v 1.83478 c 0.893,-0.71986 1.7344,-1.28229 2.5237,-1.68682 0.7896,-0.40457 1.6773,-0.60652 2.664,-0.60652 1.0697,0 2.0094,0.24154 2.8195,0.72482 0.8095,0.48321 1.4279,1.20311 1.8538,2.1602 1.0487,-0.92782 2.038,-1.63983 2.9677,-2.13802 0.9291,-0.49815 1.8718,-0.74728 2.8274,-0.74728 0.8094,0 1.537,0.12446 2.1808,0.37012 0.644,0.2466 1.1894,0.61649 1.6357,1.10969 0.4882,0.53306 0.8544,1.167 1.0985,1.90146 0.2443,0.73478 0.3659,1.69415 0.3659,2.87796 v 10.81639 z m -25.5648,0.32511 c -2.2225,0 -3.84,-0.43349 -4.8525,-1.30209 -1.0126,-0.86809 -1.5189,-2.28852 -1.5189,-4.26143 v -7.76828 h -2.0875 v -3.61042 h 2.0875 v -4.74976 h 5.4523 v 4.74976 h 5.2498 v 3.61042 h -5.2498 v 5.88906 c 0,0.58163 0,1.08975 0.013,1.52401 0.011,0.43487 0.088,0.82323 0.2489,1.16948 0.1456,0.34487 0.4023,0.61902 0.771,0.82075 0.3687,0.2016 0.9066,0.30399 1.6123,0.30399 0.2916,0 0.6725,-0.0624 1.1445,-0.17817 0.4721,-0.12446 0.8021,-0.22685 0.989,-0.32511 h 0.4669 v 3.65485 c -0.5915,0.14825 -1.2205,0.26404 -1.8849,0.34763 -0.665,0.0873 -1.4799,0.12578 -2.4457,0.12578 z m -13.0141,0.12447 c -1.4434,0 -2.7649,-0.17313 -3.9645,-0.51809 -1.1994,-0.34486 -2.2407,-0.87806 -3.1234,-1.59813 -0.8719,-0.71992 -1.5526,-1.62507 -2.0408,-2.71524 -0.4882,-1.08975 -0.7324,-2.3748 -0.7324,-3.85451 0,-1.58819 0.2654,-2.93961 0.7947,-4.0543 0.5293,-1.11464 1.2461,-2.03206 2.1497,-2.75213 0.8717,-0.69126 1.8979,-1.20062 3.0766,-1.53157 1.1794,-0.33018 2.4069,-0.49568 3.6843,-0.49568 0.9665,0 1.9317,0.11207 2.8976,0.31778 0.9664,0.21171 1.9366,0.5505 2.913,1.0138 v 4.43902 h -0.7011 c -0.2183,-0.197 -0.4858,-0.41467 -0.8021,-0.6514 -0.3164,-0.23649 -0.6627,-0.45325 -1.0362,-0.65133 -0.3949,-0.20667 -0.8407,-0.38253 -1.3398,-0.52559 -0.4981,-0.1433 -1.0536,-0.21397 -1.6669,-0.21397 -1.3916,1.3e-4 -2.4691,0.46082 -3.2325,1.38355 -0.7633,0.92287 -1.1444,2.16283 -1.1444,3.7214 0,1.66712 0.4072,2.90996 1.2229,3.72871 0.8159,0.8195 1.898,1.228 3.2482,1.228 0.685,10e-5 1.2877,-0.0748 1.807,-0.22179 0.5194,-0.14826 0.9665,-0.32512 1.3397,-0.53304 0.3636,-0.20665 0.675,-0.42202 0.9354,-0.64392 0.259,-0.22179 0.4832,-0.42201 0.67,-0.59904 h 0.7011 v 4.43914 c -0.3112,0.1281 -0.6724,0.27647 -1.0822,0.44362 -0.4096,0.16806 -0.8281,0.30629 -1.254,0.41465 -0.5293,0.13817 -1.0251,0.24431 -1.4877,0.31778 -0.462,0.0749 -1.0723,0.11206 -1.8304,0.11206 z m -16.6422,0 c -3.3026,0 -5.834,-0.74976 -7.5944,-2.24912 -1.7603,-1.49943 -2.6404,-3.63508 -2.6404,-6.40697 0,-2.71278 0.8208,-4.87802 2.4613,-6.4958 1.6409,-1.61772 3.9361,-2.42666 6.8854,-2.42666 2.6795,0 4.6943,0.68499 6.0445,2.05676 1.35,1.3712 2.025,3.33414 2.025,5.88906 v 1.86445 h -11.9483 c 0.05,0.76961 0.2227,1.41302 0.5143,1.93088 0.2903,0.51813 0.6751,0.92912 1.1532,1.2355 0.4672,0.30537 1.0127,0.52557 1.6358,0.65884 0.6227,0.13322 1.3033,0.19929 2.0407,0.19929 0.634,0 1.2567,-0.0624 1.8695,-0.19929 0.6127,-0.13322 1.1731,-0.30768 1.6823,-0.52557 0.4472,-0.18829 0.8594,-0.38987 1.2379,-0.60653 0.3784,-0.21674 0.6875,-0.40961 0.9267,-0.57663 h 0.5766 v 4.2763 c -0.4459,0.16809 -0.8544,0.32285 -1.223,0.46583 -0.3687,0.1433 -0.8755,0.28884 -1.519,0.43717 -0.5915,0.14826 -1.2018,0.26405 -1.8304,0.34763 -0.6277,0.0873 -1.3943,0.12578 -2.2977,0.12578 z m 1.8069,-10.89038 c -0.023,-1.09477 -0.2989,-1.92859 -0.8019,-2.50072 -0.5044,-0.57168 -1.2749,-0.85814 -2.3135,-0.85814 -1.0586,1.5e-4 -1.8875,0.30125 -2.4846,0.90296 -0.5965,0.60156 -0.9266,1.42043 -0.9889,2.45627 z m -10.9502,-1.27262 h -0.4518 c -0.2082,-0.0749 -0.5095,-0.12444 -0.903,-0.15569 -0.3949,-0.0367 -0.8307,-0.05 -1.3086,-0.05 -0.5716,0 -1.1707,0.0749 -1.7993,0.2365 -0.6289,0.15802 -1.2379,0.34487 -1.8305,0.56294 v 11.12716 h -5.4522 v -16.6167 h 5.4522 v 2.3823 c 0.2489,-0.21675 0.5942,-0.49072 1.0363,-0.82074 0.4408,-0.33018 0.8432,-0.5941 1.2069,-0.79211 0.3949,-0.22685 0.8543,-0.42201 1.3785,-0.58412 0.5243,-0.16297 1.02,-0.2443 1.4878,-0.2443 0.1768,1.5e-4 0.3738,0.005 0.5915,0.0132 0.2182,0.0103 0.4161,0.023 0.5917,0.05 z m -14.014,11.71912 h -5.4524 v -16.61683 h 5.4524 z m 0.1557,-18.98428 h -5.7638 v -4.03959 h 5.7638 z m -6.8143,7.99026 c 0,2.0519 -0.4721,3.88901 -1.4177,5.51183 -0.9452,1.62271 -2.1393,2.868 -3.583,3.73608 -1.2043,0.73979 -2.5158,1.21555 -3.9334,1.42792 -1.4176,0.2117 -2.9262,0.31871 -4.5254,0.31871 h -7.2594 v -22.0324 h 7.1971 c 1.6305,0 3.1571,0.0997 4.5799,0.29619 1.4228,0.19698 2.7573,0.67627 4.0037,1.43527 1.5266,0.92783 2.7312,2.17761 3.6139,3.75101 0.883,1.57335 1.3243,3.42543 1.3243,5.55617 z m -5.9821,-0.0501 c 0,-1.45005 -0.2627,-2.69052 -0.787,-3.72136 -0.5244,-1.03125 -1.3321,-1.8373 -2.4225,-2.41929 -0.7897,-0.41468 -1.6175,-0.6414 -2.4848,-0.68126 -0.8668,-0.0367 -1.903,-0.0624 -3.1076,-0.0624 h -0.1121 v 13.79052 h 0.1121 c 1.3084,0 2.4119,-0.023 3.3102,-0.0624 0.898,-0.05 1.7525,-0.30903 2.5626,-0.79209 0.9553,-0.57167 1.6824,-1.36127 2.181,-2.36745 0.4982,-1.00633 0.7472,-2.23435 0.7472,-3.68439 z m -30.55,11.48772 c -3.3025,0 -5.834,-0.74976 -7.59429,-2.24913 -1.7603,-1.4994 -2.64046,-3.63507 -2.64046,-6.40695 0,-2.71279 0.82074,-4.87802 2.46138,-6.49582 1.64087,-1.61771 3.93607,-2.42666 6.88557,-2.42666 2.6793,0 4.694,0.68501 6.0443,2.05676 1.35,1.37121 2.025,3.33415 2.025,5.88907 v 1.86444 h -11.9484 c 0.05,0.76964 0.2232,1.41304 0.5144,1.9309 0.2902,0.51812 0.675,0.9291 1.1532,1.23549 0.4671,0.30537 1.0126,0.52557 1.6358,0.65884 0.6227,0.13322 1.3034,0.19931 2.0407,0.19931 0.6339,0 1.2566,-0.0624 1.8694,-0.19931 0.6128,-0.13322 1.1731,-0.30768 1.6823,-0.52557 0.4473,-0.18827 0.8593,-0.38988 1.238,-0.60653 0.3788,-0.21673 0.6887,-0.40961 0.9266,-0.57663 h 0.5766 v 4.27631 c -0.4472,0.16807 -0.8543,0.32283 -1.2229,0.46582 -0.3689,0.14331 -0.8757,0.28886 -1.519,0.43717 -0.5916,0.14825 -1.2018,0.26405 -1.8303,0.34763 -0.629,0.0873 -1.3943,0.12578 -2.2979,0.12578 z m 1.8071,-10.89037 c -0.023,-1.09476 -0.299,-1.9286 -0.8021,-2.50074 -0.5032,-0.57167 -1.2748,-0.85812 -2.3134,-0.85812 -1.0586,1.5e-4 -1.8875,0.30124 -2.4847,0.90295 -0.5978,0.60156 -0.9266,1.42043 -0.9888,2.45627 z m -13.03259,10.4465 h -5.45245 v -23.02388 h 5.45245 z m -6.45404,-8.53775 c -9e-5,2.65356 -0.70864,4.79407 -2.12647,6.42174 -1.41754,1.62768 -3.16487,2.44145 -5.24194,2.44145 -0.87305,0 -1.63051,-0.0997 -2.27442,-0.2815 -0.64385,-0.18828 -1.32936,-0.47827 -2.05634,-0.87309 v 6.92481 h -5.45231 v -22.713 h 5.45231 v 1.73113 c 0.79957,-0.65135 1.61499,-1.1782 2.44579,-1.58317 0.83071,-0.40504 1.79148,-0.60658 2.88197,-0.60658 2.02508,0 3.59337,0.76473 4.70451,2.29348 1.11093,1.52905 1.66681,3.61047 1.6669,6.24431 z m -5.57693,0.0997 c 0,-1.61784 -0.26268,-2.79166 -0.78713,-3.52164 -0.52434,-0.72983 -1.34233,-1.09471 -2.45352,-1.09471 -0.48824,0 -0.97394,0.0749 -1.45653,0.2218 -0.48328,0.14826 -0.95779,0.37012 -1.42542,0.66632 v 8.36016 c 0.2902,0.12446 0.61027,0.2016 0.95771,0.25165 0.34763,0.0501 0.76101,0.0749 1.238,0.0749 1.32927,0 2.31587,-0.41238 2.95978,-1.23552 0.64392,-0.82323 0.96647,-2.06419 0.96647,-3.72134 z m -19.19066,8.4381 v -8.30097 c 0,-0.81827 -0.0132,-1.50925 -0.0501,-2.07155 -0.023,-0.56172 -0.12445,-1.02128 -0.28011,-1.37611 -0.1557,-0.35498 -0.39722,-0.61398 -0.72486,-0.77713 -0.32742,-0.16297 -0.78713,-0.2443 -1.37856,-0.2443 -0.41604,0 -0.82576,0.0873 -1.23049,0.259 -0.40504,0.17311 -0.84694,0.41742 -1.32405,0.73229 v 11.7783 h -5.48357 v -8.30101 c 0,-0.80955 -0.0132,-1.49689 -0.0496,-2.06421 -0.0367,-0.56666 -0.13224,-1.02872 -0.28792,-1.3834 -0.1557,-0.35498 -0.39723,-0.61402 -0.72483,-0.77717 -0.32741,-0.16297 -0.78087,-0.24431 -1.36312,-0.24431 -0.44589,0 -0.88301,0.0997 -1.30847,0.2962 -0.42614,0.197 -0.84192,0.42982 -1.24629,0.69496 v 11.77826 h -5.45231 v -16.61678 h 5.45231 v 1.83478 c 0.89297,-0.71985 1.73438,-1.28231 2.52362,-1.68681 0.78958,-0.40503 1.67723,-0.60659 2.66384,-0.60659 1.06987,0 2.00956,0.24155 2.81956,0.72486 0.81079,0.48324 1.42806,1.2031 1.85389,2.16023 1.04864,-0.92783 2.03817,-1.63988 2.9676,-2.13804 0.92912,-0.4982 1.87192,-0.74727 2.82741,-0.74727 0.80954,0 1.53701,0.12445 2.1809,0.36968 0.64389,0.24658 1.18939,0.61648 1.63578,1.10966 0.4882,0.53307 0.85437,1.167 1.09848,1.90142 0.24385,0.73484 0.36599,1.69421 0.36599,2.87797 v 10.81644 z m -23.17395,0 h -5.45231 v -16.61682 h 5.45231 z m 0.1557,-18.98429 h -5.76387 v -4.03959 h 5.76387 z m -16.41134,19.38385 c -1.77585,0 -3.33626,-0.16297 -4.68109,-0.48824 -1.34493,-0.32512 -2.59375,-0.72982 -3.74651,-1.21303 v -5.2381 h 0.52927 c 1.16328,0.93656 2.44566,1.65722 3.84769,2.16036 1.40211,0.50316 2.76252,0.75472 4.08142,0.75472 0.33246,0 0.77092,-0.0367 1.31646,-0.0997 0.5455,-0.0749 0.98388,-0.17819 1.31629,-0.32512 0.40501,-0.16806 0.74727,-0.40228 1.0275,-0.70246 0.2801,-0.30124 0.42107,-0.69745 0.42107,-1.19063 0,-0.55298 -0.22777,-1.00133 -0.68495,-1.34656 -0.45691,-0.34486 -1.00259,-0.59656 -1.6358,-0.75475 -0.78961,-0.19701 -1.63299,-0.38482 -2.53137,-0.56171 -0.89793,-0.17818 -1.73699,-0.39493 -2.51592,-0.65135 -1.79665,-0.60157 -3.08442,-1.4106 -3.86334,-2.42659 -0.77841,-1.0163 -1.16822,-2.28864 -1.16822,-3.81767 0,-2.06159 0.91915,-3.73123 2.75742,-5.00871 1.83813,-1.27744 4.13335,-1.9161 6.88541,-1.91619 1.38131,9e-5 2.75468,0.13321 4.12041,0.39998 1.36564,0.26633 2.58854,0.62644 3.6686,1.07978 v 5.03094 h -0.51438 c -0.86185,-0.69995 -1.91349,-1.29227 -3.15459,-1.77559 -1.24046,-0.48327 -2.51592,-0.72487 -3.82435,-0.72487 -0.5094,0 -0.96646,0.0367 -1.37089,0.0997 -0.40457,0.0749 -0.83071,0.20159 -1.27743,0.39998 -0.3637,0.15801 -0.67753,0.39216 -0.9428,0.7024 -0.26543,0.30998 -0.39723,0.65884 -0.39723,1.0437 0,0.56165 0.21033,1.0088 0.63146,1.33911 0.4211,0.33018 1.23299,0.62892 2.43796,0.89545 0.7784,0.16809 1.52927,0.33018 2.25101,0.48819 0.72234,0.15801 1.49288,0.37472 2.31342,0.65139 1.60962,0.553 2.80659,1.29474 3.59074,2.22698 0.7846,0.9328 1.17566,2.1628 1.17566,3.69175 0,2.18998 -0.90541,3.95078 -2.71829,5.28239 -1.81237,1.33177 -4.26064,1.99771 -7.34512,1.99771 z" />
      <path
         inkscape:connector-curvature="0"
         style="font-variant:normal;font-weight:bold;font-size:183.04396057px;font-family:Tahoma;-inkscape-font-specification:Tahoma-Bold;writing-mode:lr-tb;fill:#ffffff;fill-opacity:1;fill-rule:nonzero;stroke:none"
         id="path4093"
         d="M 1281.4713,506.86381 H 1131.6804 V 293.7321 h 56.3599 v 172.48069 h 93.431 z M 1116.9945,400.51258 c -2e-4,19.84853 -4.5713,37.62146 -13.7132,53.31878 -9.1426,15.69745 -20.6958,27.74484 -34.66,36.14224 -11.6539,7.15695 -24.3376,11.76109 -38.0506,13.81286 -13.7132,2.05162 -28.3056,3.07735 -43.7769,3.07735 H 916.56991 V 293.7321 h 69.62115 c 15.77264,2.6e-4 30.54074,0.954 44.30434,2.86276 13.7634,1.90866 26.6729,6.53687 38.7287,13.88433 14.768,8.97019 26.4216,21.06516 34.9613,36.28537 8.5391,15.2204 12.8089,33.13648 12.8091,53.74802 z m -57.867,-0.42981 c -10e-5,-14.02745 -2.5368,-26.02718 -7.6102,-35.99916 -5.0735,-9.97177 -12.8845,-17.77272 -23.4329,-23.40298 -7.6354,-4.0077 -15.6475,-6.20243 -24.036,-6.5843 -8.38873,-0.38113 -18.40996,-0.57289 -30.06368,-0.57289 h -1.0549 V 466.9275 h 1.0549 c 12.65829,1.4e-4 23.33259,-0.21399 32.02278,-0.6439 8.69,-0.42983 16.953,-2.98193 24.7892,-7.65786 9.2427,-5.5345 16.2751,-13.16856 21.0973,-22.90191 4.8222,-9.73326 7.2334,-21.61369 7.2335,-35.64122 z M 809.04854,510.72833 c -17.17941,0 -32.27405,-1.57449 -45.28392,-4.72343 -13.01003,-3.14914 -25.09082,-7.06157 -36.24226,-11.7373 v -50.67074 h 5.12373 c 11.25184,9.06547 23.65907,16.03148 37.22169,20.89806 13.56247,4.86668 26.72318,7.30004 39.48213,7.30004 3.21476,0 7.45935,-0.33384 12.73366,-1.00135 5.27431,-0.66756 9.5188,-1.7176 12.73379,-3.14896 3.91788,-1.62221 7.23325,-3.88854 9.94586,-6.79914 2.71243,-2.91032 4.0687,-6.75116 4.06884,-11.52259 -1.4e-4,-5.34367 -2.21041,-9.68554 -6.6306,-13.02543 -4.42059,-3.3398 -9.69491,-5.77317 -15.823,-7.30004 -7.63528,-1.9084 -15.79803,-3.72154 -24.48802,-5.43922 -8.69015,-1.71758 -16.80248,-3.81691 -24.33717,-6.29807 -17.38028,-5.82083 -29.8377,-13.64559 -37.37247,-23.4745 -7.53478,-9.82864 -11.30216,-22.13849 -11.30216,-36.92948 0,-19.94364 8.89098,-36.09428 26.67305,-48.45205 17.78203,-12.35728 39.98443,-18.53606 66.60722,-18.5363 13.36163,2.4e-4 26.6479,1.28842 39.8589,3.86472 13.2108,2.57668 25.04036,6.05971 35.48874,10.44904 v 48.66676 h -4.97287 c -8.33865,-6.77511 -18.51053,-12.50051 -30.51587,-17.17651 -12.00545,-4.67565 -24.33732,-7.01362 -36.99561,-7.01372 -4.92288,10e-5 -9.34321,0.33385 -13.26124,1.00132 -3.91813,0.66879 -8.03707,1.95638 -12.3569,3.86477 -3.51638,1.52687 -6.55539,3.7932 -9.11715,6.79898 -2.56183,3.006 -3.84281,6.36981 -3.84267,10.09117 -1.4e-4,5.43935 2.03431,9.75731 6.10318,12.95397 4.06862,3.1968 11.92995,6.08349 23.58381,8.65986 7.53455,1.6223 14.79312,3.19678 21.77542,4.72345 6.98207,1.5269 14.44141,3.62633 22.37827,6.29807 15.57163,5.34392 27.14999,12.52465 34.73514,21.54214 7.58483,9.01775 11.37736,20.92208 11.37746,35.71286 -10e-5,21.18446 -8.76551,38.21773 -26.29625,51.10013 -17.531,12.88234 -41.21531,19.32349 -71.05273,19.32349 z" />
      <path
         inkscape:connector-curvature="0"
         style="fill:#ffffff;fill-opacity:1;fill-rule:evenodd;stroke:none"
         id="path4039"
         d="m 900.57997,605.0566 c -1.38858,0 -2.51273,0.97517 -2.51273,2.17914 0,1.20313 1.12467,2.17882 2.51273,2.17882 1.38703,0 2.51279,-0.97647 2.51279,-2.17882 0,-1.20309 -1.1259,-2.17914 -2.51279,-2.17914 z m 107.71243,19.54426 c -2.1689,0 -3.9266,1.52415 -3.9266,3.40673 0,1.88075 1.7577,3.40482 3.9266,3.40482 2.1689,0 3.9268,-1.52407 3.9268,-3.40482 0,-1.88258 -1.7579,-3.40673 -3.9268,-3.40673 z m -55.88859,-7.37853 c -1.73591,0 -3.14303,1.22054 -3.14303,2.72579 0,1.50571 1.40712,2.72515 3.14303,2.72515 1.73577,0 3.14137,-1.21931 3.14137,-2.72515 0,-1.50476 -1.4056,-2.72579 -3.14137,-2.72579 z m 117.06909,9.57048 c -2.7117,0 -4.9094,1.90501 -4.9094,4.25715 0,2.35217 2.1977,4.25721 4.9094,4.25721 2.7098,0 4.9092,-1.90504 4.9092,-4.25721 0,-2.35214 -2.1994,-4.25715 -4.9092,-4.25715 z m 63.211,-3.28598 c -3.3873,0 -6.1343,2.38216 -6.1343,5.32063 0,2.94025 2.747,5.32318 6.1343,5.32318 3.3891,0 6.1379,-2.38293 6.1379,-5.32318 0,-2.93847 -2.7488,-5.32063 -6.1379,-5.32063 z m 63.3544,-10.82018 c -4.2367,0 -7.6696,2.97974 -7.6696,6.65241 0,3.67397 3.4329,6.65255 7.6696,6.65255 4.237,0 7.6715,-2.97858 7.6715,-6.65255 0,-3.67267 -3.4345,-6.65241 -7.6715,-6.65241 z m 63.3864,-19.80089 c -5.295,0 -9.5874,3.72214 -9.5874,8.31411 0,4.59205 4.2924,8.31603 9.5874,8.31603 5.2952,0 9.5894,-3.72398 9.5894,-8.31603 0,-4.59197 -4.2942,-8.31411 -9.5894,-8.31411 z m 60.7035,-26.35068 c -5.8832,0 -10.6525,4.13712 -10.6525,9.24028 0,5.10309 4.7693,9.23859 10.6525,9.23859 5.8834,0 10.6527,-4.1355 10.6527,-9.23859 0,-5.10316 -4.7693,-9.24028 -10.6527,-9.24028 z m 55.3325,-37.88377 c -6.5371,0 -11.8371,4.59532 -11.8371,10.2641 0,5.66872 5.3,10.26566 11.8371,10.26566 6.539,0 11.8374,-4.59694 11.8374,-10.26566 0,-5.66878 -5.2984,-10.2641 -11.8374,-10.2641 z m 45.6305,-53.2958 c -8.4988,0 -15.3882,5.97633 -15.3882,13.34514 0,7.37042 6.8894,13.34531 15.3882,13.34531 8.4988,0 15.3881,-5.97489 15.3881,-13.34531 0,-7.36881 -6.8893,-13.34514 -15.3881,-13.34514 z m 19.598,-55.29235 c -6.5373,0 -11.8356,4.59533 -11.8356,10.26572 0,5.66874 5.2983,10.26407 11.8356,10.26407 6.5373,0 11.8357,-4.59533 11.8357,-10.26407 0,-5.67039 -5.2984,-10.26572 -11.8357,-10.26572 z m -6.6079,-34.50932 c 4.6714,0 8.4566,-3.28134 8.4566,-7.33192 0,-4.04895 -3.7852,-7.3319 -8.4566,-7.3319 -4.6683,0 -8.4534,3.28295 -8.4534,7.3319 0,4.05058 3.7851,7.33192 8.4534,7.33192 z m -20.6462,-39.87694 c 3.3368,0 6.0383,-2.34578 6.0383,-5.23784 0,-2.89202 -2.7015,-5.23606 -6.0383,-5.23606 -3.3351,0 -6.0402,2.34404 -6.0402,5.23606 0,2.89206 2.7051,5.23784 6.0402,5.23784 z m -22.6956,-33.4375 c -2.2227,0 -4.0245,1.56377 -4.0245,3.49295 0,1.92745 1.8018,3.49124 4.0245,3.49124 2.2245,0 4.0279,-1.56379 4.0279,-3.49124 0,-1.92918 -1.8034,-3.49295 -4.0279,-3.49295 z m -24.1567,-13.69616 c 1.483,0 2.6846,-1.04241 2.6846,-2.32796 0,-1.28505 -1.2017,-2.32811 -2.6846,-2.32811 -1.4831,0 -2.683,1.04245 -2.683,2.32811 0,1.28493 1.1995,2.32796 2.683,2.32796" />
    </g>
  </g>
</svg>
