<?xml version="1.0" encoding="UTF-8" standalone="no"?>
<svg
   xmlns:dc="http://purl.org/dc/elements/1.1/"
   xmlns:cc="http://creativecommons.org/ns#"
   xmlns:rdf="http://www.w3.org/1999/02/22-rdf-syntax-ns#"
   xmlns:svg="http://www.w3.org/2000/svg"
   xmlns="http://www.w3.org/2000/svg"
   xmlns:sodipodi="http://sodipodi.sourceforge.net/DTD/sodipodi-0.dtd"
   xmlns:inkscape="http://www.inkscape.org/namespaces/inkscape"
   fill="none"
   height="128"
   viewBox="0 0 128 128"
   width="128"
   version="1.1"
   id="svg6"
   sodipodi:docname="ts-logo-128.svg"
   inkscape:version="0.92.5 (2060ec1f9f, 2020-04-08)">
  <metadata
     id="metadata12">
    <rdf:RDF>
      <cc:Work
         rdf:about="">
        <dc:format>image/svg+xml</dc:format>
        <dc:type
           rdf:resource="http://purl.org/dc/dcmitype/StillImage" />
      </cc:Work>
    </rdf:RDF>
  </metadata>
  <defs
     id="defs10" />
  <sodipodi:namedview
     pagecolor="#ffffff"
     bordercolor="#666666"
     borderopacity="1"
     objecttolerance="10"
     gridtolerance="10"
     guidetolerance="10"
     inkscape:pageopacity="0"
     inkscape:pageshadow="2"
     inkscape:window-width="947"
     inkscape:window-height="480"
     id="namedview8"
     showgrid="false"
     inkscape:zoom="1.3037281"
     inkscape:cx="34.949085"
     inkscape:cy="44.824693"
     inkscape:window-x="168"
     inkscape:window-y="346"
     inkscape:window-maximized="0"
     inkscape:current-layer="svg6" />
  <path
     style="fill:#fffffb;fill-opacity:1"
     d="M 6 0 C 2.676 0 0 2.676 0 6 L 0 122 C 0 125.324 2.676 128 6 128 L 122 128 C 125.324 128 128 125.324 128 122 L 128 6 C 128 2.676 125.324 0 122 0 L 6 0 z M 98.603516 52 C 101.86692 52 104.75734 52.197297 107.27734 52.591797 C 109.79734 52.986297 112.11909 53.591956 114.24609 54.410156 L 114.24609 67.515625 C 113.19709 66.785125 112.05441 66.143091 110.81641 65.587891 C 109.57741 65.032691 108.30319 64.572231 106.99219 64.207031 C 105.68119 63.841731 104.37803 63.571784 103.08203 63.396484 C 101.78503 63.221184 100.55447 63.132812 99.388672 63.132812 C 97.786372 63.132813 96.330531 63.28685 95.019531 63.59375 C 93.708531 63.90055 92.600366 64.331619 91.697266 64.886719 C 90.794166 65.441919 90.096863 66.106559 89.601562 66.880859 C 89.106263 67.655159 88.857422 68.523981 88.857422 69.488281 C 88.857422 70.540181 89.134 71.481753 89.6875 72.314453 C 90.241 73.147253 91.027175 73.936441 92.046875 74.681641 C 93.066475 75.426741 94.305019 76.157147 95.761719 76.873047 C 97.218319 77.588947 98.864019 78.328191 100.69922 79.087891 C 103.20522 80.139791 105.45517 81.256053 107.45117 82.439453 C 109.44617 83.622853 111.15894 84.960972 112.58594 86.451172 C 114.01394 87.941472 115.10528 89.642741 115.86328 91.556641 C 116.62028 93.470641 117 95.698134 117 98.240234 C 117 101.74653 116.33672 104.69127 115.01172 107.07227 C 113.68572 109.45427 111.88723 111.38142 109.61523 112.85742 C 107.34223 114.33342 104.69959 115.39216 101.68359 116.03516 C 98.668794 116.67816 95.485066 117 92.134766 117 C 88.697066 117 85.426919 116.70805 82.324219 116.12305 C 79.221519 115.53905 76.534119 114.66214 74.261719 113.49414 L 74.261719 99.46875 C 76.796319 101.60175 79.549984 103.20158 82.521484 104.26758 C 85.493084 105.33458 88.493538 105.86719 91.523438 105.86719 C 93.300537 105.86719 94.852234 105.70577 96.177734 105.38477 C 97.503334 105.06377 98.609447 104.61883 99.498047 104.04883 C 100.38655 103.47883 101.04933 102.80525 101.48633 102.03125 C 101.92333 101.25725 102.14258 100.41792 102.14258 99.511719 C 102.14258 98.284419 101.79375 97.188909 101.09375 96.224609 C 100.39475 95.260409 99.439469 94.368981 98.230469 93.550781 C 97.021469 92.732581 95.588334 91.943294 93.927734 91.183594 C 92.267234 90.423894 90.475534 89.650228 88.552734 88.861328 C 83.658434 86.815928 80.008969 84.316534 77.605469 81.365234 C 75.201969 78.414034 74 74.850375 74 70.671875 C 74 67.399175 74.655797 64.586575 75.966797 62.234375 C 77.277697 59.882175 79.062512 57.947234 81.320312 56.427734 C 83.578113 54.908334 86.192562 53.790119 89.164062 53.074219 C 92.135662 52.358319 95.282416 52 98.603516 52 z M 18 53 L 69 53 L 69 64.554688 L 50.703125 64.554688 L 50.703125 116 L 36.207031 116 L 36.207031 64.554688 L 18 64.554688 L 18 53 z "
     id="rect2" />
</svg>
